<?xml version="1.0" encoding="UTF-8" standalone="no"?>
<!DOCTYPE svg PUBLIC "-//W3C//DTD SVG 1.1//EN" "http://www.w3.org/Graphics/SVG/1.1/DTD/svg11.dtd">
<svg width="100%" height="100%" viewBox="0 0 24 24" version="1.1" xmlns="http://www.w3.org/2000/svg" xmlns:xlink="http://www.w3.org/1999/xlink" xml:space="preserve" xmlns:serif="http://www.serif.com/" style="fill-rule:evenodd;clip-rule:evenodd;stroke-linejoin:round;stroke-miterlimit:2;">
    <path d="M17.143,0c3.784,0 6.857,3.073 6.857,6.857c-0,3.785 -3.073,6.857 -6.857,6.857c-3.785,0 -6.857,-3.072 -6.857,-6.857c-0,-3.784 3.072,-6.857 6.857,-6.857Zm-1.283,6.434c-0.015,-0 -0.03,0.006 -0.04,0.017c-0.011,0.01 -0.017,0.025 -0.017,0.04l-0,2.903c-0,0.031 0.025,0.057 0.057,0.057l3.174,-0c0.132,0.001 0.261,-0.045 0.361,-0.131c0.101,-0.085 0.168,-0.205 0.187,-0.335l0.379,-2.469c0.012,-0.079 0.007,-0.159 -0.016,-0.235c-0.022,-0.077 -0.06,-0.147 -0.112,-0.207c-0.053,-0.06 -0.117,-0.108 -0.19,-0.141c-0.072,-0.032 -0.151,-0.049 -0.231,-0.048l-1.495,0c-0.031,0 -0.057,-0.026 -0.057,-0.057l-0,-1.04c-0,-0.218 -0.087,-0.428 -0.241,-0.582c-0.104,-0.104 -0.234,-0.178 -0.372,-0.221c-0.115,-0.028 -0.233,0.027 -0.286,0.133c-0,-0 -0.901,1.997 -1.03,2.282c-0.009,0.021 -0.03,0.034 -0.052,0.034c-0.006,-0 -0.012,-0 -0.019,-0Zm-0.194,0.057c-0,-0.015 -0.006,-0.03 -0.017,-0.041c-0.011,-0.01 -0.025,-0.016 -0.04,-0.016l-0.629,-0c-0.146,-0 -0.285,0.057 -0.388,0.16c-0.103,0.103 -0.161,0.243 -0.161,0.388l0,1.92c0,0.146 0.058,0.285 0.161,0.388c0.103,0.103 0.242,0.161 0.388,0.161l0.629,-0c0.015,-0 0.029,-0.006 0.04,-0.017c0.011,-0.011 0.017,-0.025 0.017,-0.04l-0,-2.903Z" style="fill:#7871ff;fill-opacity:0.6;"/>
    <path d="M9.143,5.714c5.046,0 9.143,4.097 9.143,9.143c-0,5.046 -4.097,9.143 -9.143,9.143c-5.046,0 -9.143,-4.097 -9.143,-9.143c0,-5.046 4.097,-9.143 9.143,-9.143Zm-1.71,8.579c-0.021,-0 -0.04,0.008 -0.054,0.022c-0.015,0.014 -0.023,0.034 -0.023,0.054l0,3.87c0,0.042 0.034,0.076 0.076,0.076l4.232,0c0.177,0.002 0.348,-0.059 0.482,-0.174c0.135,-0.114 0.223,-0.273 0.25,-0.447l0.504,-3.292c0.016,-0.105 0.009,-0.212 -0.02,-0.314c-0.03,-0.101 -0.081,-0.196 -0.151,-0.276c-0.069,-0.08 -0.156,-0.143 -0.252,-0.187c-0.097,-0.043 -0.202,-0.065 -0.308,-0.064l-1.994,0c-0.042,0 -0.076,-0.034 -0.076,-0.076l0,-1.387c0,-0.291 -0.116,-0.57 -0.321,-0.776c-0.139,-0.139 -0.312,-0.237 -0.497,-0.294c-0.153,-0.037 -0.311,0.036 -0.381,0.177c0,-0 -1.201,2.662 -1.373,3.043c-0.012,0.027 -0.039,0.045 -0.07,0.045c-0.007,-0 -0.016,-0 -0.024,-0Zm-0.26,0.076c0,-0.021 -0.008,-0.04 -0.022,-0.054c-0.014,-0.015 -0.034,-0.023 -0.054,-0.023l-0.838,0c-0.194,0 -0.38,0.077 -0.517,0.215c-0.137,0.137 -0.214,0.323 -0.214,0.517l-0,2.56c-0,0.194 0.077,0.38 0.214,0.517c0.137,0.137 0.323,0.214 0.517,0.214l0.838,0c0.02,0 0.04,-0.008 0.054,-0.022c0.014,-0.014 0.022,-0.034 0.022,-0.054l0,-3.87Z" style="fill:#7871ff;"/>
</svg>
