<svg width="24" height="24" viewBox="0 0 24 24" fill="none" xmlns="http://www.w3.org/2000/svg">
    <path fill-rule="evenodd" clip-rule="evenodd" d="M12.0014 0C18.6249 0 24 5.37679 24 11.9999C24 18.6229 18.6249 24 12.0014 24C5.37799 24 0 18.6229 0 11.9999C0 5.37679 5.37799 0 12.0014 0ZM9.6556 9.64159L4.99048 18.8705L14.2201 14.2066L18.8852 4.97773L9.6556 9.64159ZM11.9364 10.3406C12.812 10.3406 13.522 11.05 13.522 11.9241C13.522 12.798 12.812 13.5076 11.9364 13.5076C11.0637 13.5076 10.3538 12.798 10.3538 11.9241C10.3538 11.05 11.0637 10.3406 11.9364 10.3406Z" fill="#7871FF"/>
</svg>
