<?xml version="1.0" encoding="UTF-8" standalone="no"?>
<!DOCTYPE svg PUBLIC "-//W3C//DTD SVG 1.1//EN" "http://www.w3.org/Graphics/SVG/1.1/DTD/svg11.dtd">
<svg width="100%" height="100%" viewBox="0 0 24 24" version="1.1" xmlns="http://www.w3.org/2000/svg" xmlns:xlink="http://www.w3.org/1999/xlink" xml:space="preserve" xmlns:serif="http://www.serif.com/" style="fill-rule:evenodd;clip-rule:evenodd;stroke-linejoin:round;stroke-miterlimit:2;">
    <g transform="matrix(1,0,0,1,-2746,-488)">
        <g transform="matrix(0.504711,0,0,0.976562,1489.46,579.281)">
            <g transform="matrix(1.98133,0,0,1.024,2487.45,-93.472)">
                <path d="M17.951,0C21.736,0 24.808,3.073 24.808,6.857C24.808,10.642 21.736,13.714 17.951,13.714C14.166,13.714 11.094,10.642 11.094,6.857C11.094,3.073 14.166,0 17.951,0Z" style="fill:rgb(244,209,52);fill-opacity:0.6;"/>
            </g>
        </g>
        <g transform="matrix(0.504711,0,0,0.976562,1489.46,579.281)">
            <g transform="matrix(1.98133,0,0,1.024,2487.45,-93.472)">
                <path d="M16.474,6.491C16.474,6.476 16.468,6.461 16.457,6.45C16.447,6.44 16.432,6.434 16.417,6.434L15.788,6.434C15.643,6.434 15.503,6.491 15.4,6.594C15.298,6.697 15.24,6.837 15.24,6.982L15.24,8.902C15.24,9.048 15.298,9.187 15.4,9.29C15.503,9.393 15.643,9.451 15.788,9.451L16.417,9.451C16.432,9.451 16.447,9.445 16.457,9.434C16.468,9.423 16.474,9.409 16.474,9.394L16.474,6.491Z" style="fill:rgb(33,33,33);fill-opacity:0.6;"/>
            </g>
        </g>
        <g transform="matrix(0.504711,0,0,0.976562,1489.46,579.281)">
            <g transform="matrix(1.98133,0,0,1.024,2487.45,-93.472)">
                <path d="M16.668,6.434C16.653,6.434 16.639,6.44 16.628,6.451C16.617,6.461 16.611,6.476 16.611,6.491L16.611,9.394C16.611,9.425 16.637,9.451 16.668,9.451L19.842,9.451C19.974,9.452 20.103,9.406 20.204,9.32C20.305,9.235 20.371,9.115 20.391,8.985L20.769,6.516C20.781,6.437 20.776,6.357 20.754,6.281C20.731,6.204 20.693,6.134 20.641,6.074C20.589,6.014 20.524,5.966 20.452,5.933C20.379,5.901 20.3,5.884 20.221,5.885L18.725,5.885C18.694,5.885 18.668,5.859 18.668,5.828L18.668,4.788C18.668,4.57 18.581,4.36 18.427,4.206C18.323,4.102 18.193,4.028 18.055,3.985C17.94,3.957 17.822,4.012 17.769,4.118L16.739,6.4C16.73,6.421 16.71,6.434 16.687,6.434L16.668,6.434Z" style="fill:rgb(33,33,33);fill-opacity:0.6;"/>
            </g>
        </g>
        <g transform="matrix(0.504711,0,0,0.976562,1489.46,579.281)">
            <g transform="matrix(1.98133,0,0,1.024,2488.02,-94.2034)">
                <path d="M9.951,5.714C14.997,5.714 19.094,9.811 19.094,14.857C19.094,19.903 14.997,24 9.951,24C4.905,24 0.808,19.903 0.808,14.857C0.808,9.811 4.905,5.714 9.951,5.714Z" style="fill:rgb(244,209,52);"/>
            </g>
        </g>
        <g transform="matrix(0.504711,0,0,0.976562,1489.46,579.281)">
            <g transform="matrix(1.98133,0,0,1.024,2488.02,-94.2034)">
                <path d="M8.241,14.293C8.221,14.293 8.201,14.301 8.187,14.315C8.172,14.329 8.164,14.349 8.164,14.369L8.164,18.239C8.164,18.281 8.199,18.315 8.241,18.315L12.472,18.315C12.649,18.317 12.82,18.256 12.954,18.141C13.089,18.027 13.178,17.868 13.204,17.694L13.709,14.402C13.724,14.297 13.718,14.19 13.688,14.088C13.658,13.987 13.607,13.892 13.537,13.813C13.468,13.732 13.382,13.669 13.285,13.625C13.188,13.582 13.083,13.56 12.977,13.561L10.983,13.561C10.941,13.561 10.907,13.527 10.907,13.485L10.907,12.098C10.907,11.807 10.792,11.528 10.586,11.322C10.447,11.183 10.274,11.085 10.089,11.028C9.937,10.991 9.779,11.064 9.708,11.205L8.336,14.248C8.323,14.275 8.296,14.293 8.266,14.293L8.241,14.293Z" style="fill:rgb(33,33,33);"/>
            </g>
        </g>
        <g transform="matrix(0.504711,0,0,0.976562,1489.46,579.281)">
            <g transform="matrix(1.98133,0,0,1.024,2488.02,-94.2034)">
                <path d="M7.982,14.369C7.982,14.348 7.974,14.329 7.959,14.315C7.945,14.301 7.926,14.293 7.905,14.293L7.067,14.293C6.873,14.293 6.687,14.37 6.55,14.507C6.413,14.644 6.336,14.83 6.336,15.024L6.336,17.584C6.336,17.778 6.413,17.964 6.55,18.101C6.687,18.238 6.873,18.315 7.067,18.315L7.905,18.315C7.926,18.315 7.945,18.307 7.959,18.293C7.974,18.279 7.982,18.259 7.982,18.239L7.982,14.369Z" style="fill:rgb(33,33,33);"/>
            </g>
        </g>
    </g>
</svg>
