<?xml version="1.0" encoding="UTF-8" standalone="no"?>
<!DOCTYPE svg PUBLIC "-//W3C//DTD SVG 1.1//EN" "http://www.w3.org/Graphics/SVG/1.1/DTD/svg11.dtd">
<svg width="100%" height="100%" viewBox="0 0 100 100" version="1.1" xmlns="http://www.w3.org/2000/svg" xmlns:xlink="http://www.w3.org/1999/xlink" xml:space="preserve" xmlns:serif="http://www.serif.com/" style="fill-rule:evenodd;clip-rule:evenodd;stroke-linejoin:round;stroke-miterlimit:2;">
    <path d="M50,0C77.596,0 100,22.404 100,50C100,77.596 77.596,100 50,100C22.404,100 0,77.596 0,50C0,22.404 22.404,0 50,0ZM40.647,46.913C40.537,46.913 40.43,46.957 40.352,47.035C40.273,47.113 40.229,47.219 40.229,47.33C40.229,50.096 40.229,65.734 40.229,68.495C40.229,68.725 40.416,68.912 40.646,68.912C43.8,68.912 63.789,68.912 63.789,68.912C64.754,68.923 65.69,68.585 66.425,67.96C67.16,67.335 67.645,66.466 67.789,65.512L70.549,47.512C70.636,46.938 70.598,46.353 70.436,45.796C70.274,45.239 69.993,44.724 69.613,44.287C69.232,43.849 68.761,43.5 68.232,43.262C67.703,43.025 67.129,42.905 66.549,42.912L55.646,42.912C55.416,42.912 55.229,42.725 55.229,42.495C55.229,40.852 55.229,34.912 55.229,34.912C55.229,33.32 54.597,31.794 53.472,30.669C52.711,29.908 51.767,29.373 50.756,29.057C49.921,28.855 49.057,29.256 48.673,30.025C48.673,30.025 42.103,44.588 41.165,46.668C41.097,46.818 40.948,46.914 40.783,46.914C40.74,46.914 40.694,46.913 40.647,46.913ZM39.229,47.328C39.229,47.218 39.185,47.112 39.107,47.034C39.029,46.956 38.923,46.912 38.813,46.912C37.612,46.912 34.229,46.912 34.229,46.912C33.168,46.912 32.151,47.333 31.401,48.083C30.651,48.833 30.229,49.851 30.229,50.912L30.229,64.912C30.229,65.973 30.651,66.99 31.401,67.74C32.151,68.49 33.168,68.912 34.229,68.912L38.813,68.912C38.923,68.912 39.029,68.868 39.107,68.79C39.185,68.712 39.229,68.606 39.229,68.495C39.229,65.733 39.229,50.09 39.229,47.328Z" style="fill:rgb(92,157,69);"/>
</svg>
