<?xml version="1.0" encoding="UTF-8" standalone="no"?>
<!DOCTYPE svg PUBLIC "-//W3C//DTD SVG 1.1//EN" "http://www.w3.org/Graphics/SVG/1.1/DTD/svg11.dtd">
<svg width="100%" height="100%" viewBox="0 0 24 24" version="1.1" xmlns="http://www.w3.org/2000/svg" xmlns:xlink="http://www.w3.org/1999/xlink" xml:space="preserve" xmlns:serif="http://www.serif.com/" style="fill-rule:evenodd;clip-rule:evenodd;stroke-linejoin:round;stroke-miterlimit:2;">
    <path d="M17.878,0L19.905,0L19.905,4.055L23.959,4.055L23.959,6.082L19.905,6.082L19.905,10.137L17.878,10.137L17.878,6.082L13.823,6.082L13.823,4.055L17.878,4.055L17.878,0ZM6.174,18.027C5.207,18.373 4.331,18.845 3.548,19.444C3.01,18.814 2.592,18.1 2.292,17.301C1.993,16.503 1.843,15.65 1.843,14.744C1.843,12.702 2.561,10.962 3.997,9.526C5.433,8.09 7.172,7.372 9.215,7.372C11.258,7.372 12.997,8.09 14.433,9.526C15.869,10.962 16.587,12.702 16.587,14.744C16.587,15.65 16.438,16.503 16.138,17.301C15.839,18.1 15.42,18.814 14.882,19.444C14.099,18.845 13.224,18.373 12.256,18.027C11.289,17.682 10.275,17.509 9.215,17.509C8.155,17.509 7.142,17.682 6.174,18.027ZM6.923,14.733C7.545,15.355 8.309,15.666 9.215,15.666C10.121,15.666 10.885,15.355 11.507,14.733C12.129,14.111 12.44,13.347 12.44,12.44C12.44,11.534 12.129,10.77 11.507,10.148C10.885,9.526 10.121,9.215 9.215,9.215C8.309,9.215 7.545,9.526 6.923,10.148C6.301,10.77 5.99,11.534 5.99,12.44C5.99,13.347 6.301,14.111 6.923,14.733ZM5.621,23.234C6.742,23.717 7.94,23.959 9.215,23.959C10.49,23.959 11.688,23.717 12.809,23.234C13.93,22.75 14.905,22.093 15.735,21.264C16.564,20.435 17.221,19.459 17.705,18.338C18.188,17.217 18.43,16.019 18.43,14.744C18.43,13.469 18.188,12.272 17.705,11.15C17.221,10.029 16.564,9.054 15.735,8.225C14.905,7.395 13.93,6.739 12.809,6.255C11.688,5.771 10.49,5.529 9.215,5.529C7.94,5.529 6.742,5.771 5.621,6.255C4.5,6.739 3.525,7.395 2.695,8.225C1.866,9.054 1.209,10.029 0.726,11.15C0.242,12.272 0,13.469 0,14.744C0,16.019 0.242,17.217 0.726,18.338C1.209,19.459 1.866,20.435 2.695,21.264C3.525,22.093 4.5,22.75 5.621,23.234Z" style="fill:#7871ff;"/>
</svg>
