<svg width="28" height="27" viewBox="0 0 28 27" fill="none" xmlns="http://www.w3.org/2000/svg">
<g id="justwatch 1" clip-path="url(#clip0_868_1200)">
<g id="Page-1">
<g id="justwatch-small-black">
<path id="icon" d="M0.36792 19.7016C0.368487 19.6279 0.375135 19.5781 0.375135 19.5781C0.375135 19.5781 0.423759 15.4853 0.38235 14.4519C0.340628 13.4191 1.26386 13.9094 1.26386 13.9094L6.44312 16.5562C6.44312 16.5562 7.45576 17.0367 6.42555 17.5596C5.66513 17.9461 2.27022 19.7018 1.24912 20.1875C0.465614 20.5608 0.370079 20.0012 0.36792 19.7215V19.7016ZM21.618 10.8067C21.618 10.8067 21.5474 9.96358 22.2705 10.3303C22.9945 10.6973 26.6024 12.5267 26.6024 12.5267C26.6024 12.5267 28.5988 13.5077 26.5977 14.5173C25.1826 15.2311 23.0233 16.3219 22.2792 16.6957C21.5348 17.0695 21.6123 16.2639 21.6123 16.2639L21.618 10.8067ZM15.4069 20.3226C14.3861 20.8087 14.5326 19.7135 14.5326 19.7135C14.5326 19.7135 14.5816 15.6208 14.5401 14.587C14.4981 13.5536 15.4217 14.0449 15.4217 14.0449L20.6003 16.6914C20.6003 16.6914 21.6136 17.1715 20.5827 17.6951C19.8232 18.081 16.428 19.8369 15.4069 20.3226ZM8.33664 23.8398C7.31553 24.3258 7.46235 23.2298 7.46235 23.2298C7.46235 23.2298 7.51097 19.137 7.46956 18.1039C7.42784 17.0702 8.35076 17.5615 8.35076 17.5615L13.5303 20.2083C13.5303 20.2083 14.543 20.6884 13.5125 21.2119C12.7523 21.5975 9.35744 23.3535 8.33664 23.8398ZM8.34448 16.6756C7.32369 17.1613 7.4705 16.0662 7.4705 16.0662C7.4705 16.0662 7.51913 11.9734 7.47741 10.94C7.436 9.90654 8.35892 10.3975 8.35892 10.3975L13.5385 13.0443C13.5385 13.0443 14.5514 13.5245 13.5206 14.0477C12.7608 14.4336 9.36559 16.1895 8.34448 16.6756ZM15.4085 12.9752C14.3877 13.4612 14.5345 12.3661 14.5345 12.3661C14.5345 12.3661 14.5831 8.27302 14.5414 7.2396C14.4997 6.20648 15.4229 6.69716 15.4229 6.69716L20.6022 9.34427C20.6022 9.34427 21.6151 9.82409 20.5843 10.3473C19.8242 10.7332 16.429 12.4892 15.4085 12.9752ZM1.25633 13.1156C0.235537 13.6016 0.38235 12.5059 0.38235 12.5059C0.38235 12.5059 0.430975 8.41313 0.389252 7.3797C0.347529 6.34659 1.27076 6.83726 1.27076 6.83726L6.45002 9.48437C6.45002 9.48437 7.46298 9.9642 6.43214 10.4877C5.67235 10.8739 2.27713 12.6293 1.25633 13.1156ZM8.33727 9.44314C7.31679 9.92917 7.46298 8.83406 7.46298 8.83406C7.46298 8.83406 7.51191 4.74128 7.46988 3.70754C7.42878 2.67443 8.3517 3.16541 8.3517 3.16541L13.531 5.81221C13.531 5.81221 14.5439 6.29203 13.5134 6.81526C12.7533 7.20147 9.35806 8.95743 8.33727 9.44314ZM0.380465 21.251C0.3789 20.7237 0.912825 20.9398 0.912825 20.9398C0.912825 20.9398 6.19028 23.6272 6.78663 23.9359C7.38361 24.2449 6.78788 24.5871 6.78788 24.5871C6.78788 24.5871 4.65626 25.6454 2.58707 26.7033C0.518184 27.7618 0.388938 25.7154 0.388938 25.7154L0.380465 21.251ZM0.403055 5.75734L0.40776 1.2926C0.40776 1.2926 0.535438 -0.753485 2.60526 0.302878C4.67508 1.35893 6.80796 2.41467 6.80796 2.41467C6.80796 2.41467 7.40369 2.75688 6.80733 3.06622C6.21067 3.37557 0.936353 6.06762 0.936353 6.06762C0.936353 6.06762 0.402741 6.28398 0.403055 5.75734Z" fill="#7871FF"/>
</g>
</g>
</g>
<defs>
<clipPath id="clip0_868_1200">
<rect width="28" height="27" fill="white"/>
</clipPath>
</defs>
</svg>
