<?xml version="1.0" encoding="UTF-8" standalone="no"?>
<!DOCTYPE svg PUBLIC "-//W3C//DTD SVG 1.1//EN" "http://www.w3.org/Graphics/SVG/1.1/DTD/svg11.dtd">
<svg width="100%" height="100%" viewBox="0 0 24 24" version="1.1" xmlns="http://www.w3.org/2000/svg" xmlns:xlink="http://www.w3.org/1999/xlink" xml:space="preserve" xmlns:serif="http://www.serif.com/" style="fill-rule:evenodd;clip-rule:evenodd;stroke-linejoin:round;stroke-miterlimit:2;">
    <g transform="matrix(1,0,0,1,-5283,-5606.73)">
        <g transform="matrix(0.504711,0,0,0.976562,4115.46,5602.28)">
            <g transform="matrix(1.98133,0,0,1.024,-8106.55,-5686.84)">
                <path d="M5271,5558C5277.62,5558 5283,5563.38 5283,5570C5283,5576.62 5277.62,5582 5271,5582C5264.38,5582 5259,5576.62 5259,5570C5259,5563.38 5264.38,5558 5271,5558ZM5266,5573.12C5265.48,5573.64 5265.48,5574.48 5266,5575C5266.52,5575.52 5267.36,5575.52 5267.88,5575L5271,5571.88L5274.12,5575C5274.64,5575.52 5275.48,5575.52 5276,5575C5276.52,5574.48 5276.52,5573.64 5276,5573.12L5272.88,5570L5276,5566.88C5276.52,5566.36 5276.52,5565.52 5276,5565C5275.48,5564.48 5274.64,5564.48 5274.12,5565L5271,5568.12L5267.88,5565C5267.36,5564.48 5266.52,5564.48 5266,5565C5265.48,5565.52 5265.48,5566.36 5266,5566.88L5269.12,5570L5266,5573.12Z" style="fill:rgb(194,65,58);"/>
            </g>
        </g>
    </g>
</svg>
