<?xml version="1.0" encoding="UTF-8" standalone="no"?>
<!DOCTYPE svg PUBLIC "-//W3C//DTD SVG 1.1//EN" "http://www.w3.org/Graphics/SVG/1.1/DTD/svg11.dtd">
<svg width="100%" height="100%" viewBox="0 0 24 24" version="1.1" xmlns="http://www.w3.org/2000/svg" xmlns:xlink="http://www.w3.org/1999/xlink" xml:space="preserve" xmlns:serif="http://www.serif.com/" style="fill-rule:evenodd;clip-rule:evenodd;stroke-linejoin:round;stroke-miterlimit:2;">
    <g transform="matrix(1,0,0,1,-2633,-508)">
        <g transform="matrix(0.504711,0,0,0.976562,1489.46,525.281)">
            <g transform="matrix(1.3125,0,0,1.3125,-1001.89,98.2657)">
                <g transform="matrix(1.98133,0,0,1.024,2488.02,-94.2034)">
                    <path d="M9.951,5.714C14.997,5.714 19.094,9.811 19.094,14.857C19.094,19.903 14.997,24 9.951,24C4.905,24 0.808,19.903 0.808,14.857C0.808,9.811 4.905,5.714 9.951,5.714Z" style="fill:rgb(244,209,52);"/>
                </g>
                <g transform="matrix(1.98133,0,0,1.024,2488.02,-94.2034)">
                    <path d="M8.241,14.293C8.221,14.293 8.201,14.301 8.187,14.315C8.172,14.329 8.164,14.349 8.164,14.369L8.164,18.239C8.164,18.281 8.199,18.315 8.241,18.315L12.472,18.315C12.649,18.317 12.82,18.256 12.954,18.141C13.089,18.027 13.178,17.868 13.204,17.694L13.709,14.402C13.724,14.297 13.718,14.19 13.688,14.088C13.658,13.987 13.607,13.892 13.537,13.813C13.468,13.732 13.382,13.669 13.285,13.625C13.188,13.582 13.083,13.56 12.977,13.561L10.983,13.561C10.941,13.561 10.907,13.527 10.907,13.485L10.907,12.098C10.907,11.807 10.792,11.528 10.586,11.322C10.447,11.183 10.274,11.085 10.089,11.028C9.937,10.991 9.779,11.064 9.708,11.205L8.336,14.248C8.323,14.275 8.296,14.293 8.266,14.293L8.241,14.293Z" style="fill:rgb(33,33,33);"/>
                </g>
                <g transform="matrix(1.98133,0,0,1.024,2488.02,-94.2034)">
                    <path d="M7.982,14.369C7.982,14.348 7.974,14.329 7.959,14.315C7.945,14.301 7.926,14.293 7.905,14.293L7.067,14.293C6.873,14.293 6.687,14.37 6.55,14.507C6.413,14.644 6.336,14.83 6.336,15.024L6.336,17.584C6.336,17.778 6.413,17.964 6.55,18.101C6.687,18.238 6.873,18.315 7.067,18.315L7.905,18.315C7.926,18.315 7.945,18.307 7.959,18.293C7.974,18.279 7.982,18.259 7.982,18.239L7.982,14.369Z" style="fill:rgb(33,33,33);"/>
                </g>
            </g>
        </g>
    </g>
</svg>
