<?xml version="1.0" encoding="UTF-8" standalone="no"?>
<!DOCTYPE svg PUBLIC "-//W3C//DTD SVG 1.1//EN" "http://www.w3.org/Graphics/SVG/1.1/DTD/svg11.dtd">
<svg width="100%" height="100%" viewBox="0 0 24 24" version="1.1" xmlns="http://www.w3.org/2000/svg" xmlns:xlink="http://www.w3.org/1999/xlink" xml:space="preserve" xmlns:serif="http://www.serif.com/" style="fill-rule:evenodd;clip-rule:evenodd;stroke-linejoin:round;stroke-miterlimit:2;">
    <g transform="matrix(1,0,0,1,-3119,8.64872e-15)">
        <g id="popcorn-bucket-pixel-perfect" transform="matrix(0.518308,0,0,0.518308,1501.96,-5.68434e-13)">
            <rect x="3119.85" y="0" width="46.305" height="46.305" style="fill:none;"/>
            <g transform="matrix(0.413433,1.34821e-48,0,0.413433,1830.35,1.18423e-12)">
                <path d="M3127.03,15.644C3126.39,14.845 3126,13.829 3126,12.724C3126,10.148 3128.09,8.057 3130.67,8.057C3131.27,8.057 3131.85,8.172 3132.38,8.382C3132.86,3.677 3136.84,-0 3141.67,-0C3145.43,-0 3148.67,2.227 3150.15,5.433C3151.1,4.943 3152.19,4.667 3153.33,4.667C3154.24,4.667 3155.11,4.841 3155.91,5.158C3156.72,2.187 3159.44,-0 3162.67,-0C3165.89,-0 3168.61,2.187 3169.42,5.158C3170.22,4.841 3171.09,4.667 3172,4.667C3173.15,4.667 3174.23,4.943 3175.19,5.433C3176.66,2.227 3179.91,0 3183.67,0C3186.11,0 3188.33,0.939 3189.99,2.475C3191.28,0.961 3193.2,0 3195.33,0C3198.56,0 3201.28,2.187 3202.09,5.158C3202.89,4.841 3203.76,4.667 3204.67,4.667C3208.68,4.667 3211.22,6.785 3212.05,9.84C3212.86,9.513 3213.74,9.333 3214.67,9.333C3218.04,9.333 3220.86,11.728 3221.52,14.91C3220.13,14.324 3218.6,14 3217,14C3213.7,14 3210.73,15.37 3208.61,17.57C3207.47,17.2 3206.26,17 3205,17C3201.7,17 3198.73,18.37 3196.61,20.57C3195.47,20.2 3194.26,20 3193,20C3189.7,20 3186.73,21.37 3184.61,23.57C3183.47,23.2 3182.26,23 3181,23C3178.81,23 3176.75,23.606 3175,24.661C3173.25,23.607 3171.19,23 3169,23C3167.74,23 3166.53,23.2 3165.39,23.569C3163.27,21.37 3160.3,20 3157,20C3155.74,20 3154.53,20.2 3153.39,20.569C3151.27,18.37 3148.3,17 3145,17C3143.74,17 3142.53,17.2 3141.39,17.569C3139.27,15.37 3136.3,14 3133,14C3130.82,14 3128.78,14.6 3127.03,15.644Z"/>
            </g>
            <g transform="matrix(0.413433,1.34821e-48,0,0.413433,1829.11,1.18423e-12)">
                <path d="M3129.02,30.862C3129.01,30.687 3129,30.511 3129,30.333C3129,26.47 3132.14,23.333 3136,23.333C3139.28,23.333 3142.04,25.6 3142.8,28.653C3144.08,27.229 3145.93,26.333 3148,26.333C3151.28,26.333 3154.04,28.6 3154.8,31.653C3156.08,30.229 3157.93,29.333 3160,29.333C3163.28,29.333 3166.04,31.6 3166.8,34.653C3168.08,33.229 3169.93,32.333 3172,32.333C3174.55,32.333 3176.78,33.694 3178,35.728C3179.22,33.694 3181.45,32.333 3184,32.333C3186.07,32.333 3187.92,33.229 3189.2,34.653C3189.96,31.6 3192.72,29.333 3196,29.333C3198.07,29.333 3199.92,30.229 3201.2,31.653C3201.96,28.6 3204.72,26.333 3208,26.333C3210.07,26.333 3211.92,27.229 3213.2,28.653C3213.96,25.6 3216.72,23.333 3220,23.333C3223.86,23.333 3227,26.47 3227,30.333C3227,30.511 3226.99,30.687 3226.98,30.862C3226.97,30.941 3226.97,31.02 3226.96,31.099C3226.96,31.099 3221.33,85.411 3219.85,99.627C3219.64,101.638 3218.16,103.286 3216.18,103.709C3207.43,105.583 3184.01,110.594 3178.97,111.673C3178.33,111.809 3177.67,111.811 3177.03,111.678C3171.92,110.608 3147.86,105.582 3138.88,103.707C3136.87,103.287 3135.37,101.602 3135.19,99.557C3133.9,85.21 3129.03,30.928 3129.03,30.928C3129.02,30.906 3129.02,30.884 3129.02,30.862Z"/>
            </g>
        </g>
    </g>
</svg>
