<?xml version="1.0" encoding="UTF-8" standalone="no"?>
<!DOCTYPE svg PUBLIC "-//W3C//DTD SVG 1.1//EN" "http://www.w3.org/Graphics/SVG/1.1/DTD/svg11.dtd">
<svg width="100%" height="100%" viewBox="0 0 90 61" version="1.1" xmlns="http://www.w3.org/2000/svg" xmlns:xlink="http://www.w3.org/1999/xlink" xml:space="preserve" xmlns:serif="http://www.serif.com/" style="fill-rule:evenodd;clip-rule:evenodd;stroke-linejoin:round;stroke-miterlimit:2;">
    <g transform="matrix(1,0,0,1,-2713,-739.601)">
        <g transform="matrix(0.504711,0,0,0.976562,1489.46,579.281)">
            <g id="eyeIcon" transform="matrix(1.98133,0,0,2.06502,-3049.04,-324.667)">
                <path d="M2807.42,266.531C2782.59,266.531 2762.42,253.301 2762.42,251.626C2762.42,249.952 2782.59,236.722 2807.42,236.722C2832.26,236.722 2852.42,249.952 2852.42,251.626C2852.42,253.301 2832.26,266.531 2807.42,266.531ZM2807.42,241.068C2795.67,241.068 2786.13,245.799 2786.13,251.626C2786.13,257.453 2795.67,262.184 2807.42,262.184C2819.17,262.184 2828.71,257.453 2828.71,251.626C2828.71,245.799 2819.17,241.068 2807.42,241.068ZM2807.42,247.079C2812.49,247.079 2816.59,249.116 2816.59,251.626C2816.59,254.136 2812.49,256.174 2807.42,256.174C2802.36,256.174 2798.25,254.136 2798.25,251.626C2798.25,249.116 2802.36,247.079 2807.42,247.079Z"/>
            </g>
        </g>
    </g>
</svg>
