<?xml version="1.0" encoding="UTF-8" standalone="no"?>
<!DOCTYPE svg PUBLIC "-//W3C//DTD SVG 1.1//EN" "http://www.w3.org/Graphics/SVG/1.1/DTD/svg11.dtd">
<svg width="100%" height="100%" viewBox="0 0 24 24" version="1.1" xmlns="http://www.w3.org/2000/svg" xmlns:xlink="http://www.w3.org/1999/xlink" xml:space="preserve" xmlns:serif="http://www.serif.com/" style="fill-rule:evenodd;clip-rule:evenodd;stroke-linejoin:round;stroke-miterlimit:2;">
    <g transform="matrix(0.13459,0,0,0.260417,-355.61,-38.7675)">
        <g>
            <g>
                <g transform="matrix(4.18766,0,0,4.36454,-9025.18,-903.286)">
                    <path d="M2807.42,241.068C2819.17,241.068 2828.71,245.799 2828.71,251.626C2828.71,257.453 2819.17,262.184 2807.42,262.184C2795.67,262.184 2786.13,257.453 2786.13,251.626C2786.13,245.799 2795.67,241.068 2807.42,241.068ZM2807.42,256.914C2816.23,256.914 2823.39,252.22 2823.39,251.626C2823.39,251.032 2816.23,246.338 2807.42,246.338C2798.61,246.338 2791.45,251.032 2791.45,251.626C2791.45,252.22 2798.61,256.914 2807.42,256.914Z" style="fill:rgb(170,170,170);"/>
                </g>
                <g transform="matrix(1.48579,0,0,1.54854,-1439.9,-194.708)">
                    <path d="M2807.42,241.068C2819.17,241.068 2828.71,245.799 2828.71,251.626C2828.71,257.453 2819.17,262.184 2807.42,262.184C2795.67,262.184 2786.13,257.453 2786.13,251.626C2786.13,245.799 2795.67,241.068 2807.42,241.068ZM2807.42,247.078C2802.36,247.078 2798.25,249.116 2798.25,251.626C2798.25,254.136 2802.36,256.174 2807.42,256.174C2812.48,256.174 2816.59,254.136 2816.59,251.626C2816.59,249.116 2812.48,247.078 2807.42,247.078Z" style="fill:rgb(170,170,170);"/>
                </g>
            </g>
        </g>
    </g>
</svg>
