<?xml version="1.0" encoding="UTF-8" standalone="no"?>
<!DOCTYPE svg PUBLIC "-//W3C//DTD SVG 1.1//EN" "http://www.w3.org/Graphics/SVG/1.1/DTD/svg11.dtd">
<svg width="100%" height="100%" viewBox="0 0 21 24" version="1.1" xmlns="http://www.w3.org/2000/svg" xmlns:xlink="http://www.w3.org/1999/xlink" xml:space="preserve" xmlns:serif="http://www.serif.com/" style="fill-rule:evenodd;clip-rule:evenodd;stroke-linejoin:round;stroke-miterlimit:2;">
    <g transform="matrix(1,0,0,1,-2674.27,-112.524)">
        <g transform="matrix(0.504711,0,0,0.976562,1489.46,113.281)">
            <g transform="matrix(0.420074,6.02793e-33,-7.77561e-33,0.227749,1330.05,-143.059)">
                <g id="popcorn" transform="matrix(1,-1.76449e-32,8.38987e-33,0.95326,-0.0135713,19.9421)">
                    <path d="M2434.48,652.1C2432.84,649.575 2430.29,647.661 2427.65,647.196C2426.94,647.072 2426.26,647.047 2425.6,647.111C2425.6,647.075 2425.6,647.039 2425.6,647.002C2425.6,645.176 2427.13,643.631 2429.19,643.086C2429.85,642.91 2430.35,642.36 2430.46,641.682C2431.11,637.586 2435.16,634.45 2440.05,634.45C2443.09,634.45 2445.8,635.661 2447.58,637.559C2448.06,638.071 2448.8,638.243 2449.46,637.995C2450.29,637.682 2451.2,637.509 2452.16,637.509C2452.84,637.509 2453.49,637.593 2454.1,637.751C2454.71,637.909 2455.36,637.722 2455.79,637.264C2457.04,635.947 2458.93,635.109 2461.04,635.109C2463.67,635.109 2465.94,636.406 2467.07,638.312C2467.52,639.059 2468.44,639.363 2469.24,639.025C2469.98,638.711 2470.83,638.533 2471.72,638.533C2472.67,638.533 2473.57,638.734 2474.34,639.085C2475.1,639.431 2476,639.186 2476.48,638.502C2477.81,636.603 2480.57,635.615 2483.49,636.187C2485.23,636.527 2486.71,637.358 2487.74,638.45C2488.29,639.03 2489.16,639.163 2489.86,638.771C2490.84,638.217 2492,637.854 2493.27,637.757C2496.91,637.478 2500.07,639.489 2500.44,642.32C2500.51,642.793 2500.76,643.219 2501.15,643.498C2501.53,643.777 2502.02,643.884 2502.49,643.794C2502.71,643.752 2502.93,643.722 2503.16,643.704C2504.88,643.573 2506.45,644.177 2507.54,645.231C2507.88,645.559 2508.34,645.736 2508.81,645.719C2509.28,645.702 2509.73,645.493 2510.04,645.141C2510.96,644.11 2512.31,643.409 2513.87,643.29C2516.84,643.063 2519.43,645.051 2519.67,647.75C2518.56,647.122 2517.26,646.915 2515.89,647.2C2514.36,647.519 2512.81,648.491 2511.52,649.937C2511.01,650.508 2510.53,651.152 2510.11,651.851C2508.72,650.005 2506.59,649.138 2504.38,649.6C2502.82,649.923 2501.28,650.902 2499.99,652.356C2499.49,652.933 2499.02,653.584 2498.61,654.291C2497.17,652.431 2495,651.552 2492.76,652.019C2491.19,652.346 2489.65,653.333 2488.38,654.794C2487.87,655.377 2487.41,656.035 2487.01,656.749C2485.53,654.878 2483.32,653.986 2481.06,654.458C2479.47,654.789 2477.92,655.782 2476.67,657.25C2476.21,657.79 2475.79,658.393 2475.42,659.046C2473.85,656.682 2471.45,654.907 2468.88,654.454C2466.1,653.964 2463.51,654.982 2461.87,656.977C2460.28,654.431 2457.75,652.495 2455.07,652.022C2452.3,651.535 2449.74,652.545 2448.14,654.533C2446.53,651.997 2443.99,650.072 2441.32,649.603C2438.57,649.119 2436.05,650.12 2434.48,652.1Z"/>
                </g>
                <g transform="matrix(1.04818,0,2.73691e-48,1,-119.282,0)">
                    <path d="M2498.44,649.404C2498.55,647.178 2499.49,645.018 2500.81,643.526C2501.62,642.601 2502.58,641.931 2503.57,641.725C2505.91,641.238 2507.65,643.625 2507.41,646.99C2507.37,647.512 2507.77,647.965 2508.29,648.002C2508.81,648.039 2509.26,647.646 2509.3,647.124C2509.46,644.892 2510.45,642.728 2511.79,641.236C2512.62,640.312 2513.57,639.642 2514.56,639.437C2516.86,638.959 2518.5,641.327 2518.19,644.685L2510.93,722.173C2510.84,723.085 2510.19,723.846 2509.3,724.072L2475.95,732.579C2475.64,732.659 2475.31,732.668 2474.99,732.604L2432.11,723.984C2431.16,723.793 2430.45,722.99 2430.37,722.021L2424.53,644.408C2424.28,641.182 2426.56,638.952 2429.38,639.449C2432.47,639.992 2435.32,643.361 2435.52,646.823C2435.55,647.346 2435.99,647.745 2436.52,647.716C2437.04,647.686 2437.44,647.238 2437.41,646.716C2437.23,643.481 2439.57,641.241 2442.43,641.743C2445.53,642.289 2448.33,645.655 2448.46,649.108C2448.48,649.631 2448.92,650.039 2449.45,650.019C2449.97,649.999 2450.38,649.559 2450.36,649.036C2450.24,645.792 2452.65,643.542 2455.54,644.05C2458.65,644.597 2461.41,647.96 2461.47,651.404C2461.48,651.927 2461.92,652.343 2462.44,652.333C2462.96,652.323 2463.38,651.891 2463.37,651.368C2463.31,648.114 2465.8,645.854 2468.72,646.368C2471.84,646.917 2474.47,650.201 2474.55,653.712C2474.57,654.235 2474.83,654.962 2475.5,654.962C2476.17,654.962 2476.45,654.538 2476.45,654.014L2476.45,654.008C2476.45,651.799 2477.31,649.648 2478.58,648.16C2479.37,647.235 2480.32,646.565 2481.32,646.356C2483.74,645.853 2485.68,648.272 2485.6,651.657C2485.58,652.18 2486,652.614 2486.52,652.626C2487.04,652.639 2487.48,652.225 2487.49,651.702C2487.54,649.483 2488.45,647.325 2489.74,645.834C2490.54,644.909 2491.49,644.238 2492.49,644.031C2494.87,643.536 2496.7,645.939 2496.55,649.314C2496.52,649.837 2496.93,650.281 2497.45,650.305C2497.97,650.33 2498.41,649.926 2498.44,649.404Z"/>
                </g>
            </g>
        </g>
    </g>
</svg>
