<?xml version="1.0" encoding="UTF-8" standalone="no"?>
<!DOCTYPE svg PUBLIC "-//W3C//DTD SVG 1.1//EN" "http://www.w3.org/Graphics/SVG/1.1/DTD/svg11.dtd">
<svg width="100%" height="100%" viewBox="0 0 24 24" version="1.1" xmlns="http://www.w3.org/2000/svg" xmlns:xlink="http://www.w3.org/1999/xlink" xml:space="preserve" xmlns:serif="http://www.serif.com/" style="fill-rule:evenodd;clip-rule:evenodd;stroke-linejoin:round;stroke-miterlimit:2;">
    <g transform="matrix(1,0,0,1,-5314,-5637.73)">
        <g transform="matrix(0.504711,0,0,0.976562,4115.46,5602.28)">
            <g transform="matrix(2.60049,0,0,1.344,2372.6,28.6148)">
                <path d="M9.951,5.714C14.997,5.714 19.094,9.811 19.094,14.857C19.094,19.903 14.997,24 9.951,24C4.905,24 0.808,19.903 0.808,14.857C0.808,9.811 4.905,5.714 9.951,5.714ZM9.951,10.108C9.342,10.108 8.409,13.212 8.409,13.212C8.409,13.212 5.169,13.14 4.981,13.719C4.792,14.299 7.456,16.145 7.456,16.145C7.456,16.145 6.386,19.204 6.879,19.562C7.372,19.921 9.951,17.958 9.951,17.958C9.951,17.958 12.53,19.921 13.023,19.562C13.516,19.204 12.446,16.145 12.446,16.145C12.446,16.145 15.11,14.299 14.922,13.719C14.733,13.14 11.493,13.212 11.493,13.212C11.493,13.212 10.561,10.108 9.951,10.108Z" style="fill:url(#_Linear1);"/>
            </g>
        </g>
    </g>
    <defs>
        <linearGradient id="_Linear1" x1="0" y1="0" x2="1" y2="0" gradientUnits="userSpaceOnUse" gradientTransform="matrix(17.8705,3.88916,-3.88916,17.8705,1.01076,12.9361)"><stop offset="0" style="stop-color:rgb(255,205,0);stop-opacity:1"/><stop offset="0.5" style="stop-color:rgb(255,244,164);stop-opacity:1"/><stop offset="1" style="stop-color:rgb(255,205,0);stop-opacity:1"/></linearGradient>
    </defs>
</svg>
