<?xml version="1.0" encoding="UTF-8" standalone="no"?>
<!DOCTYPE svg PUBLIC "-//W3C//DTD SVG 1.1//EN" "http://www.w3.org/Graphics/SVG/1.1/DTD/svg11.dtd">
<svg width="100%" height="100%" viewBox="0 0 24 24" version="1.1" xmlns="http://www.w3.org/2000/svg" xmlns:xlink="http://www.w3.org/1999/xlink" xml:space="preserve" xmlns:serif="http://www.serif.com/" style="fill-rule:evenodd;clip-rule:evenodd;stroke-linejoin:round;stroke-miterlimit:2;">
    <g transform="matrix(1,0,0,1,-2602,-508)">
        <g transform="matrix(0.504711,0,0,0.976562,1489.46,525.281)">
            <g transform="matrix(0.266667,0,0,0.266667,1499.73,-57.3937)">
                <g transform="matrix(4.18766,0,0,4.36454,-9025.18,-903.286)">
                    <ellipse cx="2807.42" cy="251.626" rx="21.291" ry="10.558" style="fill:rgb(170,170,170);"/>
                </g>
                <g transform="matrix(1.6475,0,0,1.71708,-1893.88,-237.117)">
                    <path d="M2807.42,266.531C2782.59,266.531 2762.42,253.301 2762.42,251.626C2762.42,249.952 2782.59,236.722 2807.42,236.722C2832.26,236.722 2852.42,249.952 2852.42,251.626C2852.42,253.301 2832.26,266.531 2807.42,266.531Z" style="fill:rgb(33,33,33);"/>
                </g>
                <g transform="matrix(1.6475,0,0,1.71708,-1893.88,-237.117)">
                    <ellipse cx="2807.42" cy="251.626" rx="21.291" ry="10.558" style="fill:rgb(170,170,170);"/>
                </g>
                <g transform="matrix(1.6475,0,0,1.71708,-1893.88,-237.117)">
                    <ellipse cx="2807.42" cy="251.626" rx="9.171" ry="4.548" style="fill:rgb(33,33,33);"/>
                </g>
            </g>
        </g>
    </g>
</svg>
