<?xml version="1.0" encoding="UTF-8" standalone="no"?>
<!DOCTYPE svg PUBLIC "-//W3C//DTD SVG 1.1//EN" "http://www.w3.org/Graphics/SVG/1.1/DTD/svg11.dtd">
<svg width="100%" height="100%" viewBox="0 0 25 25" version="1.1" xmlns="http://www.w3.org/2000/svg" xmlns:xlink="http://www.w3.org/1999/xlink" xml:space="preserve" xmlns:serif="http://www.serif.com/" style="fill-rule:evenodd;clip-rule:evenodd;stroke-linejoin:round;stroke-miterlimit:2;">
    <g transform="matrix(1,0,0,1,-3983.87,-1417.43)">
        <g transform="matrix(0.504711,0,0,0.976562,2734.46,1465.5)">
            <g transform="matrix(1.98133,0,0,1.024,-8154.1,-5736.74)">
                <rect x="5364.87" y="5554.21" width="24.192" height="24.192" style="fill:none;"/>
                <clipPath id="_clip1">
                    <rect x="5364.87" y="5554.21" width="24.192" height="24.192"/>
                </clipPath>
                <g clip-path="url(#_clip1)">
                    <g transform="matrix(0.550447,0,0,0.550447,5378.56,5551.06)">
                        <clipPath id="_clip2">
                            <path d="M9.951,5.714C14.997,5.714 19.094,9.811 19.094,14.857C19.094,19.903 14.997,24 9.951,24C4.905,24 0.808,19.903 0.808,14.857C0.808,9.811 4.905,5.714 9.951,5.714Z"/>
                        </clipPath>
                        <g clip-path="url(#_clip2)">
                            <g opacity="0.65">
                                <path d="M9.951,5.714C14.997,5.714 19.094,9.811 19.094,14.857C19.094,19.903 14.997,24 9.951,24C4.905,24 0.808,19.903 0.808,14.857C0.808,9.811 4.905,5.714 9.951,5.714Z" style="fill:url(#_Linear3);"/>
                                <clipPath id="_clip4">
                                    <path d="M9.951,5.714C14.997,5.714 19.094,9.811 19.094,14.857C19.094,19.903 14.997,24 9.951,24C4.905,24 0.808,19.903 0.808,14.857C0.808,9.811 4.905,5.714 9.951,5.714Z"/>
                                </clipPath>
                                <g clip-path="url(#_clip4)">
                                    <g transform="matrix(0.52262,0,0,0.52262,-2744.78,-2911.86)">
                                        <path d="M5271,5591C5272.17,5591 5273.95,5596.94 5273.95,5596.94C5273.95,5596.94 5280.15,5596.8 5280.51,5597.91C5280.87,5599.02 5275.77,5602.55 5275.77,5602.55C5275.77,5602.55 5277.82,5608.4 5276.88,5609.09C5275.93,5609.78 5271,5606.02 5271,5606.02C5271,5606.02 5266.07,5609.78 5265.12,5609.09C5264.18,5608.4 5266.23,5602.55 5266.23,5602.55C5266.23,5602.55 5261.13,5599.02 5261.49,5597.91C5261.85,5596.8 5268.05,5596.94 5268.05,5596.94C5268.05,5596.94 5269.83,5591 5271,5591Z" style="fill:rgb(33,33,33);"/>
                                    </g>
                                </g>
                            </g>
                        </g>
                    </g>
                    <g transform="matrix(1.09017,0,0,1.09017,5364.18,5552.04)">
                        <path d="M9.951,5.714C14.997,5.714 19.094,9.811 19.094,14.857C19.094,19.903 14.997,24 9.951,24C4.905,24 0.808,19.903 0.808,14.857C0.808,9.811 4.905,5.714 9.951,5.714Z" style="fill:url(#_Linear5);"/>
                        <clipPath id="_clip6">
                            <path d="M9.951,5.714C14.997,5.714 19.094,9.811 19.094,14.857C19.094,19.903 14.997,24 9.951,24C4.905,24 0.808,19.903 0.808,14.857C0.808,9.811 4.905,5.714 9.951,5.714Z"/>
                        </clipPath>
                        <g clip-path="url(#_clip6)">
                            <g transform="matrix(0.52262,0,0,0.52262,-2744.78,-2911.86)">
                                <path d="M5271,5591C5272.17,5591 5273.95,5596.94 5273.95,5596.94C5273.95,5596.94 5280.15,5596.8 5280.51,5597.91C5280.87,5599.02 5275.77,5602.55 5275.77,5602.55C5275.77,5602.55 5277.82,5608.4 5276.88,5609.09C5275.93,5609.78 5271,5606.02 5271,5606.02C5271,5606.02 5266.07,5609.78 5265.12,5609.09C5264.18,5608.4 5266.23,5602.55 5266.23,5602.55C5266.23,5602.55 5261.13,5599.02 5261.49,5597.91C5261.85,5596.8 5268.05,5596.94 5268.05,5596.94C5268.05,5596.94 5269.83,5591 5271,5591Z" style="fill:rgb(33,33,33);"/>
                            </g>
                        </g>
                    </g>
                </g>
            </g>
        </g>
    </g>
    <defs>
        <linearGradient id="_Linear3" x1="0" y1="0" x2="1" y2="0" gradientUnits="userSpaceOnUse" gradientTransform="matrix(17.8705,3.88916,-3.88916,17.8705,1.01076,12.9361)"><stop offset="0" style="stop-color:rgb(255,205,0);stop-opacity:1"/><stop offset="0.5" style="stop-color:rgb(255,244,164);stop-opacity:1"/><stop offset="1" style="stop-color:rgb(255,205,0);stop-opacity:1"/></linearGradient>
        <linearGradient id="_Linear5" x1="0" y1="0" x2="1" y2="0" gradientUnits="userSpaceOnUse" gradientTransform="matrix(17.8705,3.88916,-3.88916,17.8705,1.01076,12.9361)"><stop offset="0" style="stop-color:rgb(255,205,0);stop-opacity:1"/><stop offset="0.5" style="stop-color:rgb(255,244,164);stop-opacity:1"/><stop offset="1" style="stop-color:rgb(255,205,0);stop-opacity:1"/></linearGradient>
    </defs>
</svg>
