<?xml version="1.0" encoding="UTF-8" standalone="no"?>
<!DOCTYPE svg PUBLIC "-//W3C//DTD SVG 1.1//EN" "http://www.w3.org/Graphics/SVG/1.1/DTD/svg11.dtd">
<svg width="100%" height="100%" viewBox="0 0 24 24" version="1.1" xmlns="http://www.w3.org/2000/svg" xmlns:xlink="http://www.w3.org/1999/xlink" xml:space="preserve" xmlns:serif="http://www.serif.com/" style="fill-rule:evenodd;clip-rule:evenodd;stroke-linejoin:round;stroke-miterlimit:2;">
    <g transform="matrix(1,0,0,1,-5314,-5606.73)">
        <g transform="matrix(0.504711,0,0,0.976562,4115.46,5602.28)">
            <g transform="matrix(1.98133,0,0,1.024,-8045.13,-5686.84)">
                <path d="M5271,5558C5277.62,5558 5283,5563.38 5283,5570C5283,5576.62 5277.62,5582 5271,5582C5264.38,5582 5259,5576.62 5259,5570C5259,5563.38 5264.38,5558 5271,5558ZM5265.18,5568.65C5264.43,5568.65 5263.83,5569.25 5263.83,5570C5263.83,5570.75 5264.43,5571.35 5265.18,5571.35L5269.69,5571.35L5269.69,5575.87C5269.69,5576.61 5270.3,5577.22 5271.05,5577.22C5271.8,5577.22 5272.4,5576.61 5272.4,5575.87L5272.4,5571.35L5276.92,5571.35C5277.66,5571.35 5278.27,5570.75 5278.27,5570C5278.27,5569.25 5277.66,5568.65 5276.92,5568.65L5272.4,5568.65L5272.4,5564.13C5272.4,5563.39 5271.8,5562.78 5271.05,5562.78C5270.3,5562.78 5269.69,5563.39 5269.69,5564.13L5269.69,5568.65L5265.18,5568.65Z" style="fill:rgb(35,179,28);"/>
            </g>
        </g>
    </g>
</svg>
